<svg xmlns="http://www.w3.org/2000/svg" xmlns:xlink="http://www.w3.org/1999/xlink">
  <svg id="hamburger" viewBox="0 0 48 48">
    <path d="M37,18H11c-1.7,0-3-1.3-3-3v0c0-1.7,1.3-3,3-3h26c1.7,0,3,1.3,3,3v0C40,16.7,38.7,18,37,18z"></path>
    <path d="M37,28H11c-1.7,0-3-1.3-3-3v0c0-1.7,1.3-3,3-3h26c1.7,0,3,1.3,3,3v0C40,26.7,38.7,28,37,28z"></path>
    <path d="M37,38H11c-1.7,0-3-1.3-3-3v0c0-1.7,1.3-3,3-3h26c1.7,0,3,1.3,3,3v0C40,36.7,38.7,38,37,38z"></path>
  </svg>
  <svg id="close" viewBox="0 0 48 48">
    <path d="M27.4,24l9.1-9.1c0.7-0.7,0.7-1.9,0-2.7l-0.7-0.7c-0.7-0.7-1.9-0.7-2.7,0L24,20.6l-9.1-9.1c-0.7-0.7-1.9-0.7-2.7,0l-0.7,0.7
    c-0.7,0.7-0.7,1.9,0,2.7l9.1,9.1l-9.1,9.1c-0.7,0.7-0.7,1.9,0,2.7l0.7,0.7c0.7,0.7,1.9,0.7,2.7,0l9.1-9.1l9.1,9.1
    c0.7,0.7,1.9,0.7,2.7,0l0.7-0.7c0.7-0.7,0.7-1.9,0-2.7L27.4,24z"></path>
  </svg>
</svg>